<svg width="21" height="20" viewBox="0 0 21 20" fill="none" xmlns="http://www.w3.org/2000/svg">
<path d="M0.422767 10.0128C0.226948 4.85713 4.74289 0.0926309 9.90378 0.030816C12.5341 -0.193533 15.0932 0.827925 17.0838 2.4939C16.2672 3.39173 15.4364 4.27918 14.549 5.11001C12.7965 4.04532 10.6866 3.23395 8.63852 3.95454C5.3351 4.89517 3.33455 8.79555 4.55701 12.0272C5.56939 15.4024 9.67467 17.2547 12.8921 15.8368C14.558 15.2403 15.6564 13.7031 16.1384 12.0514C14.2291 12.0134 12.3193 12.0372 10.41 11.9844C10.4052 10.8484 10.4005 9.71672 10.4052 8.58071C13.5893 8.57596 16.7782 8.56645 19.9671 8.59498C20.1629 11.3784 19.7522 14.3572 17.9427 16.5911C15.4649 19.78 10.8872 20.7159 7.16318 19.4649C3.21092 18.1668 0.336745 14.1851 0.422767 10.0128Z" fill="white"/>
</svg>
