<svg xmlns="http://www.w3.org/2000/svg" viewBox="0 0 158 43" height="43" width="158"><style>.st0{fill:#852F76;} .st1{fill:none;} .st2{fill:#941D6F;} .st3{fill:#D7E200;} .st4{fill:#DC1C67;} .st5{fill:url(#SVGID_1_);} .st6{fill:url(#SVGID_2_);} .st7{opacity:0.83;fill:url(#SVGID_3_);} .st8{fill:url(#SVGID_4_);}</style>
<g id="emblem" transform="scale(0.15) translate(-215 0)">
<path class="st1" d="M329.9 404.6l-.5 8.3c-.5 7-5.5 18.7-13 20.8-2.2.6-3.9 1-6.2.7-7.6-1-11.6-5-14.8-11.7-2.5-5.2-4-11.9-4.4-18.2-.1-2.4-.1-4.8.2-7l.8-7 1.3-5 2.3-5.5c.9-2.1 4-4.7 5.6-6.4 3.1-3.2 8.1-4.1 12.3-3.4 8.3 1.3 13.8 12.2 15.1 19.7.9 5 1.3 9.7 1.3 14.7z"/><path class="st1" d="M515.9 404.3l-.5 8.3c-.5 7.1-5.5 18.7-13 20.8-2.2.6-3.9 1-6.2.7-7.6-.9-11.6-5-14.8-11.7-2.5-5.2-4-11.9-4.4-18.2-.1-2.4-.1-4.8.2-7l.8-7 1.3-5 2.3-5.5c.9-2.2 4-4.7 5.6-6.4 3.1-3.2 8.1-4.1 12.3-3.4 8.3 1.3 13.8 12.2 15.1 19.7.9 4.9 1.3 9.7 1.3 14.7z"/><path class="st2" d="M394.7 197.7v67.9c0 3.1-1.5 6.2-3 8.9-1.5 2.8-3.5 5.3-6 7.3-1.9 1.5-4 2.8-6.3 3.7-1.7.7-4.3 1.7-6.1 1.7h-135.1c-2.9 0-8.4-3.1-8.4-3.1s-8.3-5.7-10.5-10.5c-1.2-2.6-2.3-5-2.3-7.9v-29.6s2.6 1.6 3.1 1.9c1.4 1 2.6 2.4 3.9 3.5 8.3 7.7 18.6 13.7 28.6 18.7.4.2.9.4 1.3.5 6.9 2.8 13.5 5 21.1 5.1 8.6.2 16.7-2.1 24.5-5.6 16-7.3 29.8-18.3 43.5-29.1 3.2-2.5 6.2-5.1 9.1-7.9 2.7-2.6 5.8-4.8 8.9-7 6.2-4.7 12.6-9.4 19.6-12.9 2.7-1.3 5.7-2.8 8-3.7 2.2-.6 5.7-1.7 6.1-1.9z"/><path class="st3" d="M387.5 174.9s-4.8 1.9-7.1 2.7c-4.9 1.8-9.5 3.9-14.1 6.3l-5.7 3.4s-15 9.8-23 14c-8.1 4.3-16 8.8-24.6 12.1-4 1.6-8 3-12 4.2-7.3 2.2-14.8 3.4-22.4 4.5-3.6.5-7.4.7-11 .5-5.3-.3-10.5-1.3-15.6-2.7-6.5-1.7-13-3.8-19.1-6.6-3.1-1.4-6-3-8.9-4.8-1.5-.9-2.9-1.9-4.3-2.9-.4-.3-2.7-1.4-2.7-1.8v33.2s2.6 1.7 3.1 2c1.4 1 2.6 2.4 3.9 3.5 8.3 7.8 18.6 14.4 28.6 19.5l1.3.3c6.9 2.8 13.5 5 21.1 5.1 8.6.2 16.7-2.1 24.5-5.8 16-7.5 29.8-18.5 43.5-29.6 3.2-2.5 6.2-4.5 9.1-7.4 2.7-2.6 5.8-5.5 8.9-7.8 6.2-4.8 12.6-9.1 19.6-12.7 2.7-1.3 5.7-3.3 8-4.1l6.1-2.1v-26.4l-7.2 3.4z"/><path class="st4" d="M217 161.5v42.9c0 .4 2.3 1.6 2.7 1.8 1.4 1 2.8 2 4.3 3 2.9 1.8 5.8 3.5 8.9 4.9 6.1 2.9 12.6 5.1 19.1 6.8 5.1 1.3 10.3 2.5 15.6 2.7 3.7.2 7.4.1 11-.5 7.6-1.2 15-2.3 22.4-4.6 4.1-1.3 8.1-2.8 12-4.3 8.6-3.4 16.5-8 24.6-12.4 8-4.4 23-14.4 23-14.4l5.7-3.4c4.6-2.5 9.2-4.5 14.1-6.3 2.4-.9 4.8-1.7 7.1-2.7.7-.3 7.2-3.1 7.2-3.1v-28.1c-11.5-.5-22.3 1.4-33.4 4.3-5.5 1.4-11 2.8-16.5 4.5-5.3 1.6-10.5 3.4-15.7 4.9-11.7 3.4-23.8 5.6-35.7 8.6-12.1 3-24.3 5.6-36.7 6-14.2.3-27.9-2.4-39.7-10.6"/><path class="st3" d="M383 64.1l-4.7-3.9c-1.8-1.5-3.3-3.4-4.8-5.2-1.6-2-3.3-4-4.4-6.3-3.1-6.5-.7-12.5 1.4-18.8-1.4-.9-2.8-2.1-4.3-2.8-3-1.2-6.9-1.6-10.1-2.3-10.9-2.4-24.5.9-34.6 5-10.5 4.3-20.1 10.8-28.8 18.2-8.8 7.6-26.5 22.6-26.5 22.6s-9.7 8.4-15.1 11.9c-5.5 3.5-11.5 6.1-17.7 7.9-1.3.4-16.5 3.3-16.5 2.1v28.4c0 1.1 11.7 1.1 12.7 1 5.4-.5 10.7-2.1 15.8-3.8 11-3.6 21.9-7.5 32.6-11.8 8.5-3.4 16.9-7 25.7-9.5 13.7-4.1 27.3-8.7 41.8-8.5 9.4.1 18.7 1.3 28 2.7 4.3.7 8.7 1.3 13 2.1-3.6-.5 5.1.7 7.5 2.6.4.7.6 1.4.6 1.8v-10c.1-8-5.8-18-11.6-23.4z"/><path class="st4" d="M378.9 9.5c-.3-1.9-.8-3.8-1.7-5.4-2.2-3.7-5-3.9-8.6-3.9h-127.4c-1.8 0-4.5 1.7-5.6 2.9-2.9 3.2-3.5 9.7-2.6 13.6 1.4 6.1 5.7 9.8 8.2 15.3 2.2 5 2.2 10.7.3 15.8-1.6 4.1-4.9 7.4-7.7 10.6-3.8 4.5-8.4 8.9-11.5 13.9-2.8 4.6-4.5 10-4.9 15.3l-.4 5s.1-.1.4-.3l-.4.3c0 1.2 15.2-1.7 16.5-2.1 6.2-1.7 12.2-4.4 17.7-7.9 5.4-3.4 10.3-7.6 15.1-11.7 8.8-7.6 17.6-15.1 26.5-22.7 8.6-7.4 18.2-13.8 28.8-18.2 10.1-4.2 23.8-7.4 34.6-5 3.2.7 7 1 10.1 2.2 1.5.6 2.9 1.9 4.3 2.8 3.1-3.1 6.3-5.8 7.7-10.2 1-3.3 1.1-6.9.6-10.3z"/><path class="st2" d="M217 162.9c11.8 8.1 25.5 10.8 39.7 10.4 12.4-.4 24.7-2.9 36.7-5.9 11.9-2.9 23.9-5.1 35.7-8.5 5.3-1.5 10.5-3.3 15.7-4.9 5.5-1.6 11-3 16.5-4.4 11.2-2.8 21.9-4.7 33.4-4.2v-49.8c0-.4-.2-.7-.6-1-2.4-2-11.1-3.2-7.5-2.7-4.3-.8-8.7-1.5-13-2.2-9.3-1.5-18.6-2.7-28-2.8-14.4-.1-28 4.6-41.8 8.8-8.8 2.5-17.2 6.3-25.7 9.8-10.7 4.4-21.6 8.5-32.6 12.2-5.1 1.7-10.4 3.4-15.8 4-1.1.1-12.7.1-12.7-1.1v42.3"/><linearGradient id="SVGID_1_" gradientUnits="userSpaceOnUse" x1="324.344" y1="12.706" x2="375.261" y2="12.706"><stop offset="0" stop-color="#fff" stop-opacity=".05"/><stop offset=".084" stop-color="#fff" stop-opacity=".27"/><stop offset=".416" stop-color="#fff" stop-opacity=".8"/><stop offset=".781" stop-color="#fff" stop-opacity=".7"/><stop offset="1" stop-color="#fff" stop-opacity=".5"/></linearGradient><path class="st5" d="M324.3 4.4h32.8s10.2-1 14.1 1.4c2.9 1.8 4.6 5.5 3.9 8.8-1.7 8.3-10.7 6.5-27.1 6.4-16.4-.1-10.1-.1-23.6 0l-.1-16.6z"/><linearGradient id="SVGID_2_" gradientUnits="userSpaceOnUse" x1="237.859" y1="12.423" x2="255.44" y2="12.423"><stop offset="0" stop-color="#fff" stop-opacity=".05"/><stop offset=".089" stop-color="#fff" stop-opacity=".27"/><stop offset=".373" stop-color="#fff" stop-opacity=".5"/><stop offset=".413" stop-color="#fff" stop-opacity=".5"/><stop offset=".743" stop-color="#fff" stop-opacity=".5"/><stop offset="1" stop-color="#fff" stop-opacity=".1"/></linearGradient><path class="st6" d="M255.4 4.4v16.2h-11.6c-1.3 0-3.6-1.5-4.3-2.4-3.3-4.5-1.8-12.3 3.8-13.4 3.7-.8 12.1-.4 12.1-.4z"/><linearGradient id="SVGID_3_" gradientUnits="userSpaceOnUse" x1="337.851" y1="170.108" x2="390.244" y2="170.108"><stop offset="0" stop-color="#fff" stop-opacity=".2"/><stop offset=".416" stop-color="#fff" stop-opacity=".7"/><stop offset=".781" stop-color="#fff" stop-opacity=".7"/><stop offset=".791" stop-color="#fff" stop-opacity=".695"/><stop offset="1" stop-color="#fff" stop-opacity=".6"/></linearGradient><path class="st7" d="M389.3 262.3c1.8-6.8.4-14.4.4-22.3v-52c0-31.6.9-63.3 0-94.9-.2-7.1-2.3-13-7.5-18.5-3.4-3.5-7.5-6.3-11.6-8.9-6.7-4.1-25.3-6.3-32.8-8.1v224.6c0-.2 25 .2 25.9.2 6.4-.2 12.8-4 17.8-8 4.5-3.3 6.8-7.9 7.8-12.1z"/><linearGradient id="SVGID_4_" gradientUnits="userSpaceOnUse" x1="222.838" y1="173.337" x2="242.306" y2="173.337"><stop offset="0" stop-color="#fff" stop-opacity=".05"/><stop offset=".089" stop-color="#fff" stop-opacity=".27"/><stop offset=".373" stop-color="#fff" stop-opacity=".6"/><stop offset=".413" stop-color="#fff" stop-opacity=".6"/><stop offset=".743" stop-color="#fff" stop-opacity=".6"/><stop offset="1" stop-color="#fff" stop-opacity=".1"/></linearGradient><path class="st8" d="M223.3 89.2c-.9 5.5-.2 11.3-.2 16.6v154.9c-.1 11 8.2 17 19.2 21.7v-218.4c-5.9 5.1-10.6 9.9-15.2 15.8-2.2 2.9-3.3 6.1-3.8 9.4z"/>
</g><defs><g id="mnogo"><path class="st0" d="M6 107.8l1.7-14s1.5.3 4.1 0c2.6-.3 4.9-1.8 6.8-3.6 1.8-1.7 3.1-3.5 4-5.8.4-1.1.7-2.3.9-3.4.5-2.8 1.6-18.8 1.6-18.8l1.8-28.3s-3.5-1.1-5.1-3.5c-.9-1.4-1.3-3.1-1.6-4.7-.3-1.7-.4-3.5.1-5.2.5-1.8 1.3-3.4 2.5-4.8.8-.9 1.6-1.8 2.6-2.6l1.3-1.1c.3-.2 1.3-.9 1.6-.9h25.7l24.5 60.2 28.1-60.2h26.3v73.9c0 1.5-.1 3 .4 4.4.5 1.3 1.5 2.7 2.6 3.6.9.7 2.1 1 3.3 1 .3 0 3.1-.5 3-.8l4.2 13.2s-.3 1-2 2.1c-2 1.2-3.3 2.2-5.5 2.8-1.2.3-2.3.6-3.5.7-1 .2-2.1.2-3.2.3l-1.6.1c-1.1.1-2.3.2-3.4 0-1.3-.2-2.5-.5-3.7-.9-1.1-.3-2.3-.7-3.3-1.3-1-.6-1.9-1.3-2.7-2.1l-.3-.3c-1.1-1.2-2-2.5-2.9-3.8-.8-1.3-1.5-2.6-2.1-3.9-1.4-3-2.1-5.9-2.5-9.1-.4-2.7-.7-5.4-1-8.1-.7-5.6-1.3-11.2-1.8-16.9l-.3-3.3c0-.3-.2-1-.1-1.2l-22.6 48.5h-13.8l-20.7-50.4-3.2 31.9s0 2.5-1.3 6c-.7 1.9-1.9 3.7-3.1 5.3-2.3 3.2-4.8 4.7-8.2 6.4-1.9 1-3.9 1.6-5.9 2.1-2.1.6-4.2 1-6.4.9-1.9-.1-4-.2-5.9-.7-2-.6-4.3-.9-6.2-1.7-1.1-.5-2.2-1.2-3.2-2zM162 110.1v-75.4c0-.1-1.9-.8-2.1-.9-4.4-2.5-6.5-9-5.1-13.7.8-2.5 1.3-3.9 2.4-5.5l3.6-3.6h28v39h32v-38.9h26.2v76.8c0 3.7 5.6 6.5 8.9 5.9l1.3-.3s4.1 12.7 4.1 12.9c0 .1-4.2 2.5-4.5 2.6-5.7 3.1-12.8 3.8-19.1 1.9-4.1-1.2-7.2-2.8-10.2-6-4.4-4.7-6.1-10.8-6.4-17.1-.1-2.3-.1-16.8-.1-16.8h-32l-.1 39.1h-26.9zM361.8 39.4c-1.6-4.7-4.1-10.4-7.2-14.2-3.2-3.9-7.5-8.1-11.9-10.7-3.6-2.2-7.6-3.8-11.6-5.1-4.6-1.5-9.6-1.3-14.4-1.3-5.3 0-10.6.3-15.9 1.2-9.4 1.6-19.9 8.7-25.6 16.2-7.3 9.6-9.8 21.8-9.4 34 .3 7.1 1.5 14.1 3.5 20.6.7 2.3 1.9 4.4 2.8 6.6 2.2 5.2 3.3 7.2 8.3 13.2 4.1 4.9 11.4 9.1 17.4 11.2 4.9 1.7 10.3 1.9 15.5 1.8 5.4-.2 11-.4 16.2-1.6 4.8-1.1 11-3.2 14.9-6.3 3.7-2.9 7.3-6 10.4-9.5 4.2-4.7 7.5-12.3 8.8-18.4 1.1-5.5 1.2-11.1 1.3-16.7.2-7.1-.8-14.4-3.1-21zm-27.6 31.3c-.5 7-5.5 18.7-13 20.8-2.2.6-3.9 1-6.2.7-7.6-1-11.6-5-14.8-11.7-2.5-5.2-4-11.9-4.4-18.2-.1-2.4-.1-4.8.2-7l.8-7 1.3-5 2.3-5.5c.9-2.1 4-4.7 5.6-6.4 3.1-3.2 8.1-4.1 12.3-3.4 8.3 1.3 13.8 12.2 15.1 19.7.8 4.8 1.2 9.6 1.2 14.6.1 0-.4 8.4-.4 8.4z"/><path class="st1" d="M334.7 62.3l-.5 8.3c-.5 7-5.5 18.7-13 20.8-2.2.6-3.9 1-6.2.7-7.6-1-11.6-5-14.8-11.7-2.5-5.2-4-11.9-4.4-18.2-.1-2.4-.1-4.8.2-7l.8-7 1.3-5 2.3-5.5c.9-2.1 4-4.7 5.6-6.4 3.1-3.2 8.1-4.1 12.3-3.4 8.3 1.3 13.8 12.2 15.1 19.7.9 5 1.3 9.8 1.3 14.7z"/><path class="st0" d="M382.8 34l-6-15.5c-.3-.8 6.2-4.6 6.9-5 10.1-5.7 21.7-6.7 33-5.4l6.2 2c3.7 1.2 7 3.5 9.8 6.1 2.2 2 5.3 5.2 6.2 8.1 0 0 1.5 4.6 1.5 4.7 1.1 3.5 1.3 7.5 1 11.2-.5 6.4-3 13.8-8.5 17.7l-3.5 2.5c-4.4 3.1-9.5 5.6-14.3 8.2-3.1 1.7-6.5 2.9-9.4 5-3.2 2.3-4.7 6.8-4 10.6 1.6 8.4 13.6 7.8 20 6.4 6.4-1.4 12.5-2.9 18.5-5.5 0 0 6.6 14.5 6.7 14.7.8 1.7-8.3 5.7-9.4 6.2-7.2 3.6-15.1 6.1-23.2 6.6-7.1.4-14.5.4-21.4-1.7-8.9-2.7-15-10.7-17.7-19.3-2.2-7.3-1.8-14.1.6-21.3 1.6-4.6 6.2-8.6 9.8-11.7l5.8-3.7 5.6-2.9 5.8-2.5c3.7-1.6 7.6-3.3 10.6-6.2 2.8-2.7 4.5-8.1 2.2-11.6-3.1-4.7-8.9-5.4-14.1-4.6-4 .6-7.8 2-11.6 3.5-2.4 1-4.8 2-7.1 3.4zM598.7 31.3v39h-16.2v-45s-1.3-.6-1.5-.6c-3.2-1.3-3.8-5.6-3.3-8.6.1-.4.2-.8.3-1.1.3-.9 1-1.5 1.7-2.2.8-.7 1.6-1.4 2.6-1.8.2-.1.5-.2.8-.2h15.7v7.6h1l1.2-1.3 2-2 2.2-1.5 3-1.5c5.2-2.6 12.3-2 17.8-1.3 0 0-2.7 15-2.8 15-.6-.1-6.1-.8-6.7-.8-3.9-.2-7.8.4-11.3 1.9-1.4.6-2.8 1.2-4.1 2.1-1.2.6-1.8 1.4-2.4 2.3zM547.8 39c-1.6-4.6-4.1-10.4-7.2-14.2-3.2-3.9-7.5-8.1-11.9-10.7-3.6-2.2-7.6-3.8-11.6-5.1-4.6-1.5-9.6-1.3-14.4-1.3-5.3 0-10.6.3-15.9 1.2-9.4 1.6-19.9 8.6-25.6 16.2-7.3 9.6-9.8 21.8-9.4 34 .3 7.1 1.5 14.1 3.5 20.6.7 2.3 1.9 4.4 2.8 6.6 2.2 5.2 3.3 7.2 8.3 13.2 4.1 4.9 11.4 9.1 17.4 11.2 4.9 1.7 10.3 1.9 15.5 1.8 5.4-.2 11-.4 16.2-1.6 4.8-1.1 11-3.3 14.9-6.3 3.7-2.9 7.3-6 10.4-9.5 4.2-4.7 7.5-12.3 8.8-18.4 1.1-5.5 1.2-11.1 1.3-16.7.2-7-.8-14.3-3.1-21zm-27.6 31.3c-.5 7.1-5.5 18.7-13 20.8-2.2.6-3.9 1-6.2.7-7.6-.9-11.6-5-14.8-11.7-2.5-5.2-4-11.9-4.4-18.2-.1-2.4-.1-4.8.2-7l.8-7 1.3-5 2.3-5.5c.9-2.2 4-4.7 5.6-6.4 3.1-3.2 8.1-4.1 12.3-3.4 8.3 1.3 13.8 12.2 15.1 19.7.8 4.8 1.2 9.6 1.2 14.6l-.4 8.4z"/><path class="st1" d="M520.7 62l-.5 8.3c-.5 7.1-5.5 18.7-13 20.8-2.2.6-3.9 1-6.2.7-7.6-.9-11.6-5-14.8-11.7-2.5-5.2-4-11.9-4.4-18.2-.1-2.4-.1-4.8.2-7l.8-7 1.3-5 2.3-5.5c.9-2.2 4-4.7 5.6-6.4 3.1-3.2 8.1-4.1 12.3-3.4 8.3 1.3 13.8 12.2 15.1 19.7.9 5 1.3 9.7 1.3 14.7z"/><path class="st0" d="M635.8 26.5c0 4.9-.1 9.8-.1 14.6 0 4.6-.7 9.2.1 13.7 1.2 6.4 6.2 11.2 12.2 13.1 8.6 2.7 16.8 1.8 23.4-4.6l1.2-1h1.5c.2 0 .9 2 1.1 2.3 1.3 2.1 3.4 3.5 5.7 4.4 1.2.4 2.4.6 3.6.8 1.6.2 3.2.4 4.7 0 1.6-.4 4.6-2.2 4.6-2.2l2.3-1.5 1-.9s.5-.6.5-.7l-2.8-8.2c-1.2.2-3 .8-4.3.5-.5-.2-1-.6-1.4-1-.7-.7-1-1.3-1-2.2v-2.1c0-2.5 0-5-.1-7.5 0-3.3-.1-6.6-.1-10l-.1-10.3c0-2.8 0-5.6-.1-8.4v-4.6000000000000005h-15.8v33c0 1.7.1 3.4 0 5.1-.2 2.9-2.8 5.2-5.5 6.2-1.3.5-2.6.6-4 .7-2.1.1-4.4-.1-6.2-1.2-5.4-3.1-3.5-13-3.5-18.3v-25.5h-16.8c-2.6 0-4.8 2.8-5.5 5-1.2 2.8-.6 5.9 1.4 8.2.4.4 4 2.9 4 2.6z"/></g></defs><use href="#mnogo" x="260" y="73" transform="scale(0.16)"></use></svg>