<svg width="14" height="22" viewBox="0 0 14 22" fill="none" xmlns="http://www.w3.org/2000/svg">
<path d="M6.90396 3.21411C8.15613 3.21411 9.17467 4.23265 9.17467 5.48482C9.17467 6.73594 8.15587 7.75448 6.90396 7.75448C5.65257 7.75448 4.63377 6.73594 4.63377 5.48482C4.63351 4.23239 5.65284 3.21411 6.90396 3.21411ZM6.90396 10.9671C9.9286 10.9671 12.3883 8.50815 12.3883 5.48482C12.3883 2.45992 9.92886 -6.10352e-05 6.90396 -6.10352e-05C3.87958 -6.10352e-05 1.4196 2.46018 1.4196 5.48482C1.4196 8.50815 3.87958 10.9671 6.90396 10.9671ZM9.12269 15.4405C10.2509 15.1836 11.3276 14.7378 12.3072 14.1219C12.6678 13.895 12.9236 13.5342 13.0181 13.1187C13.1127 12.7032 13.0384 12.2672 12.8115 11.9066C12.6993 11.7279 12.5529 11.573 12.3808 11.4508C12.2087 11.3287 12.0142 11.2417 11.8084 11.1948C11.6026 11.1479 11.3896 11.142 11.1816 11.1775C10.9735 11.2129 10.7745 11.2891 10.5959 11.4015C8.34908 12.8141 5.45727 12.813 3.21228 11.4015C3.03371 11.289 2.83472 11.2129 2.62668 11.1774C2.41864 11.1419 2.20565 11.1478 1.99989 11.1947C1.79412 11.2416 1.59963 11.3286 1.42754 11.4508C1.25544 11.5729 1.10913 11.7278 0.996961 11.9066C0.769997 12.2671 0.695537 12.7031 0.789958 13.1185C0.884379 13.534 1.13995 13.8949 1.50045 14.1219C2.48 14.7375 3.55646 15.1833 4.68444 15.4405L1.61858 18.5069C1.3173 18.8083 1.14807 19.217 1.14815 19.6432C1.14822 20.0693 1.31758 20.478 1.61898 20.7793C1.92037 21.0806 2.32911 21.2498 2.75527 21.2497C3.18143 21.2497 3.59011 21.0803 3.89139 20.7789L6.90343 17.7663L9.91731 20.7792C10.0663 20.9284 10.2433 21.0468 10.4381 21.1276C10.6329 21.2084 10.8418 21.2499 11.0527 21.2499C11.2636 21.2499 11.4724 21.2084 11.6672 21.1276C11.862 21.0468 12.039 20.9284 12.188 20.7792C12.3375 20.6302 12.4561 20.4531 12.537 20.2582C12.6179 20.0633 12.6595 19.8543 12.6595 19.6433C12.6595 19.4323 12.6179 19.2233 12.537 19.0284C12.4561 18.8334 12.3375 18.6564 12.188 18.5074L9.12269 15.4405Z" fill="white"/>
</svg>
