<svg width="22" height="14" viewBox="0 0 22 14" fill="none" xmlns="http://www.w3.org/2000/svg">
<path fill-rule="evenodd" clip-rule="evenodd" d="M20.9291 1.60458C21.0769 1.11206 20.9291 0.750061 20.226 0.750061H17.9012C17.3101 0.750061 17.0378 1.06274 16.89 1.40764C16.89 1.40764 15.7077 4.28918 14.0328 6.16094C13.491 6.70278 13.2447 6.87498 12.9492 6.87498C12.8014 6.87498 12.5875 6.70278 12.5875 6.21026V1.60458C12.5875 1.01342 12.416 0.750061 11.9233 0.750061H8.27008C7.90078 0.750061 7.6786 1.02438 7.6786 1.28442C7.6786 1.84486 8.51584 1.97405 8.60219 3.55024V6.97378C8.60219 7.72435 8.46669 7.86051 8.17111 7.86051C7.38302 7.86051 5.46609 4.96585 4.32895 1.6539C4.1061 1.0101 3.88259 0.750061 3.28845 0.750061H0.963687C0.299469 0.750061 0.166626 1.06274 0.166626 1.40764C0.166626 2.02337 0.954886 5.07744 3.83643 9.11655C5.75768 11.8747 8.46403 13.3702 10.927 13.3702C12.4048 13.3702 12.5875 13.0381 12.5875 12.466V10.3812C12.5875 9.717 12.7275 9.58449 13.1953 9.58449C13.5403 9.58449 14.1313 9.75685 15.5107 11.0868C17.0869 12.6628 17.3466 13.3702 18.2333 13.3702H20.5581C21.2223 13.3702 21.5544 13.0381 21.3628 12.3827C21.1532 11.7294 20.4007 10.7819 19.402 9.65838C18.8602 9.01791 18.0474 8.32828 17.8013 7.98356C17.4564 7.54019 17.5548 7.34325 17.8013 6.94937C17.8013 6.94937 20.6335 2.95942 20.9291 1.60474V1.60458Z" fill="white"/>
</svg>
